<svg width="38" height="38" viewBox="0 0 23 38" fill="none" xmlns="http://www.w3.org/2000/svg">
<path d="M20.6253 9.41691V10.7586C21.3663 10.7586 21.967 10.1579 21.967 9.41691H20.6253ZM20.6253 1.75024H21.967C21.967 1.00926 21.3663 0.408577 20.6253 0.408577V1.75024ZM7.20866 17.0836V18.4252C7.94964 18.4252 8.55033 17.8246 8.55033 17.0836H7.20866ZM1.45898 17.0836V15.7419C0.718002 15.7419 0.117318 16.3426 0.117318 17.0836H1.45898ZM1.45898 24.7502H0.117318C0.117318 25.4912 0.718002 26.0919 1.45898 26.0919L1.45898 24.7502ZM7.20866 24.7502H8.55033C8.55033 24.0093 7.94964 23.4086 7.20866 23.4086V24.7502ZM7.20866 36.2502H5.86699C5.86699 36.9912 6.46768 37.5919 7.20866 37.5919V36.2502ZM14.8753 36.2502V37.5919C15.6163 37.5919 16.217 36.9912 16.217 36.2502H14.8753ZM14.8753 24.7502V23.4086C14.1343 23.4086 13.5337 24.0093 13.5337 24.7502H14.8753ZM19.6673 24.7502V26.0919C20.283 26.0919 20.8196 25.6729 20.9689 25.0756L19.6673 24.7502ZM21.584 17.0836L22.8856 17.409C22.9858 17.0082 22.8957 16.5835 22.6415 16.2579C22.3872 15.9323 21.9971 15.7419 21.584 15.7419V17.0836ZM14.8753 17.0836H13.5337C13.5337 17.8246 14.1343 18.4252 14.8753 18.4252V17.0836ZM15.8337 8.07524C14.5634 8.07524 13.5337 9.10499 13.5337 10.3752H16.217C16.217 10.587 16.0454 10.7586 15.8337 10.7586V8.07524ZM20.6253 8.07524H15.8337V10.7586H20.6253V8.07524ZM19.2837 1.75024V9.41691H21.967V1.75024H19.2837ZM15.8337 3.09191H20.6253V0.408577H15.8337V3.09191ZM8.55033 10.3752C8.55033 6.35276 11.8112 3.09191 15.8337 3.09191V0.408577C10.3292 0.408577 5.86699 4.8708 5.86699 10.3752H8.55033ZM8.55033 17.0836V10.3752H5.86699V17.0836H8.55033ZM1.45898 18.4252H7.20866V15.7419H1.45898V18.4252ZM2.80065 24.7502V17.0836H0.117318V24.7502H2.80065ZM7.20866 23.4086H1.45898V26.0919H7.20866V23.4086ZM8.55033 36.2502V24.7502H5.86699V36.2502H8.55033ZM14.8753 34.9086H7.20866V37.5919H14.8753V34.9086ZM13.5337 24.7502V36.2502H16.217V24.7502H13.5337ZM19.6673 23.4086H14.8753V26.0919H19.6673V23.4086ZM20.2824 16.7582L18.3657 24.4248L20.9689 25.0756L22.8856 17.409L20.2824 16.7582ZM14.8753 18.4252H21.584V15.7419H14.8753V18.4252ZM13.5337 10.3752V17.0836H16.217V10.3752H13.5337Z" fill="white" fill-opacity="0.92"/>
</svg>
